<?xml version="1.0" encoding="UTF-8" standalone="no"?>
<svg
   id="图层_1"
   data-name="图层 1"
   viewBox="0 0 800 800"
   version="1.1"
   sodipodi:docname="xiashafellowship.svg"
   inkscape:version="1.3.2 (091e20e, 2023-11-25, custom)"
   xmlns:inkscape="http://www.inkscape.org/namespaces/inkscape"
   xmlns:sodipodi="http://sodipodi.sourceforge.net/DTD/sodipodi-0.dtd"
   xmlns="http://www.w3.org/2000/svg"
   xmlns:svg="http://www.w3.org/2000/svg"
   xmlns:rdf="http://www.w3.org/1999/02/22-rdf-syntax-ns#"
   xmlns:cc="http://creativecommons.org/ns#"
   xmlns:dc="http://purl.org/dc/elements/1.1/">
  <sodipodi:namedview
     id="namedview84"
     pagecolor="#ffffff"
     bordercolor="#000000"
     borderopacity="0.25"
     inkscape:showpageshadow="2"
     inkscape:pageopacity="0.0"
     inkscape:pagecheckerboard="0"
     inkscape:deskcolor="#d1d1d1"
     inkscape:zoom="1.01625"
     inkscape:cx="400"
     inkscape:cy="318.32718"
     inkscape:window-width="1920"
     inkscape:window-height="1009"
     inkscape:window-x="1912"
     inkscape:window-y="-8"
     inkscape:window-maximized="1"
     inkscape:current-layer="图层_1" />
  <defs
     id="defs1">
    <style
       id="style1">.cls-1,.cls-11,.cls-12,.cls-5,.cls-6{fill:none;}.cls-2{fill:#221714;}.cls-2,.cls-4,.cls-5,.cls-6{stroke:#000;}.cls-10,.cls-11,.cls-12,.cls-2,.cls-4,.cls-5,.cls-6,.cls-8{stroke-miterlimit:10;}.cls-11,.cls-2,.cls-5,.cls-8{stroke-width:0.75px;}.cls-3{font-size:27px;fill:#c9bc9c;}.cls-3,.cls-9{font-family:Zcool-LengShuiXiaoQingKeGuDianTi-Zcool-LengShuiXiaoQingKeTi, Zcool LengShuiXiaoQingKeGuDianTi-Zcool-LengShuiXiaoQingKeTi;}.cls-10,.cls-4,.cls-7,.cls-8{fill:#fff;}.cls-11,.cls-12,.cls-5,.cls-6{stroke-linecap:round;}.cls-11,.cls-5{stroke-dasharray:2 2;}.cls-6{stroke-width:5px;}.cls-10,.cls-11,.cls-12,.cls-8{stroke:#fff;}.cls-9{font-size:4.56px;fill:#c5b999;}.cls-12{stroke-width:2px;}</style>
  </defs>
  <title
     id="title1">新下沙tq logo</title>
  <path
     d="M654.52,236.89c-.17.29-.35.57-.53.85-2,1.22-10,1.83-11.36,2.23-2.37.71-13.9,4.56-17.76,4.71s-8,.48-12,.53c-5.21.06-27.88-1.22-33.86-4a5.89,5.89,0,0,0-3.16-.5,35.85,35.85,0,0,0-6.22,1.57c-3.58,1.3-7.12,2.7-10.54,4.26-2.59,1.17-5,2.62-7.43,4-.45.26-.66.85-1,1.28a8.26,8.26,0,0,0,1.77.91c1.27.32,2.56.49,3.84.71a10.48,10.48,0,0,0,7.31-1,64.21,64.21,0,0,1,7.71-3.81,23.75,23.75,0,0,1,14.06-1.48c7.9,1.55,15.31,4.93,22.62,8.61,3.16,1.59,15.42,5.2,18,6.77a50.16,50.16,0,0,1,5.19,3.78c.61.49,1.08,1.23.13,1.77-2.08,1.17-4.05,2.49-6.18,3.61a57.73,57.73,0,0,1-22.67,6.91,49.52,49.52,0,0,1-11.25-.36,57.12,57.12,0,0,1-18.42-6c-5.27-2.79-10-6-12.64-11.29a10.15,10.15,0,0,0-5.2-4.66,23.88,23.88,0,0,0-11.59-1.62,53,53,0,0,0-14.11,3.08c-3.92,1.42-7.73,3-11.54,4.63-2.57,1.08-5,2.32-7.56,3.49a1.44,1.44,0,0,0-.7,2.31c.5.82,1.18,1,2.45.59,2.51-.77,5-1.55,7.53-2.3a31.78,31.78,0,0,1,15.55-.82,58.64,58.64,0,0,1,12.68,4.1c5.39,2.42,10.7,5,16,7.66,2.29,1.13,4.5,2.45,6.72,3.73,3,1.71,6,3.42,8.91,5.25a3.07,3.07,0,0,1,1.26,1.89c.1.87-1,.8-1.68.89-1.66.21-3.4.27-5,.64-5.08,1.17-10.1,2.46-15.15,3.7a29.32,29.32,0,0,1-10.24.55,74.81,74.81,0,0,1-17-4.26A98,98,0,0,1,518,283.67a26.34,26.34,0,0,1-8.56-7c-1.11-1.44-2.2-2.9-3.44-4.25a4.36,4.36,0,0,0-4.72-1.27,23.43,23.43,0,0,0-5.32,2.66c-4.18,3.16-8.16,6.53-12.19,9.85-.51.41-.86.59-1.51-.06a25.93,25.93,0,0,0-2.51-2.28c-.92-.71-.79-1.1-.12-1.68,2.83-2.41,5.65-4.83,8.34-7.38.77-.74,1.65-1.59,1.36-3a22.24,22.24,0,0,1,.26-3.88c.2-1.76.44-3.65.5-4.62.13-2.09-.15-8.86.06-11.1a57.21,57.21,0,0,1,1.09-7.82c.7-1.71,1.42-3.4,2.13-5.1.3-.73,2-3.88,2.14-4.15a32.16,32.16,0,0,1,7.72-8c3-2.32,6.14-4.45,9.18-6.71,1.14-.85,5.84-1.66,5.58-1.07-.39.86-1.71,4.18-1.94,5a28.44,28.44,0,0,0-.08,4.78,27.62,27.62,0,0,1,0,3.86,56.48,56.48,0,0,1-3.45,15c-1,2.86-6.79,11-7.9,12.63s-2.21,3.51-3.54,5.1c-1,1.22-2.48,2.09-3.58,3.25a17.78,17.78,0,0,0-1.8,2.77l.25.23a6.77,6.77,0,0,0,1.14-.24c1.58-.63,3.21-1.2,4.69-2,6.87-3.57,13.72-7.16,20.52-10.83,3.67-2,7-4.3,8.46-8.27.77-2.1,1.75-4.15.87-6.62a59.92,59.92,0,0,1-2.62-12.8,28.44,28.44,0,0,1,3.32-17.38,34,34,0,0,1,7.11-9.53c4.61-4.21,9.56-8,15.65-10.52a12.07,12.07,0,0,1,6.63-1.25c2.51.37,3.58,1.78,2.74,3.76s-5.3,10.12-6.06,12.73c-.62,2.14-1.13,4.32-1.66,6.5a87.32,87.32,0,0,1-3.07,8.79c-2.25,5.16-5.5,12.23-6,13.4a8.79,8.79,0,0,1-4,4.66c-1.79.93-3.71,1.68-5.59,2.48-2.69,1.12-4.37,2.95-4.39,5.92a2.45,2.45,0,0,0,3,2.69,64.39,64.39,0,0,0,7.79-1.4,32.61,32.61,0,0,0,16.17-8.58,6.23,6.23,0,0,0,1.63-7.11,18.13,18.13,0,0,1-1-5.73c-.18-5.71,1.76-10.66,4.53-15.18,2-3.32,4.47-6.4,6.83-9.52a56.26,56.26,0,0,1,5.49-6.64c5.19-5,11.86-8,19.9-8.71,2.53-.23,4.06,1,3.81,3.4-.29,2.73-4.86,15.53-6.61,19.24-2.13,4.54-4.44,9-6.45,13.58a13.48,13.48,0,0,1-6,6.4c-3,1.68-6,3.18-9,4.83a22.11,22.11,0,0,0-3.48,2.35c-.32.27-.18,1-.24,1.52.43,0,1,.23,1.27.1,3-1.29,6.27-2.26,8.67-4.51a29.78,29.78,0,0,1,11.25-6.86,62.56,62.56,0,0,1,11.9-2.21,155.36,155.36,0,0,1,21.43-.86,43.18,43.18,0,0,1,11.7,1.39,56.23,56.23,0,0,1,15.92,7.71,4.92,4.92,0,0,1,2.22,2.8"
     id="path1" />
  <path
     d="M136.47,454.8l.5.62a18.86,18.86,0,0,0,5,1.22,42.89,42.89,0,0,1,5.15,1.31c.93.36,1.86.75,2.79,1.12a24.61,24.61,0,0,0,7.57,1.67c2.68.15,5.37.43,8.05.5,3.47.1,6.93.06,10.39.06a22.69,22.69,0,0,0,11.4-2.63,3.2,3.2,0,0,1,2-.33,26.2,26.2,0,0,1,4.39,1.2c2.59,1,5.17,2,7.7,3.19,1.91.87,3.75,1.95,5.6,3a4.38,4.38,0,0,1,.87.94,4,4,0,0,1-1,.64c-.79.22-1.62.33-2.43.48a7.16,7.16,0,0,1-5-.83,56.72,56.72,0,0,0-5.75-2.83,15.91,15.91,0,0,0-9.58-1.22c-5,1.05-9.33,3.42-13.57,6-1.83,1.12-12.75,6.46-13.63,7.41a.73.73,0,0,0,.2,1.27c1.58.88,3.11,1.85,4.71,2.68A44.35,44.35,0,0,0,178,485.49a29.6,29.6,0,0,0,7.41-.14,28.33,28.33,0,0,0,11.22-4.16c3-2,5.61-4.25,6.5-8.05a5,5,0,0,1,2.67-3.32,13.25,13.25,0,0,1,7.42-1.05,38.29,38.29,0,0,1,9.88,2.37c2.84,1.06,5.64,2.26,8.43,3.46,1.89.82,3.74,1.73,5.6,2.61a1.29,1.29,0,0,1,.85,1.68c-.19.59-.62.7-1.53.4-1.79-.58-3.58-1.18-5.38-1.74a20.27,20.27,0,0,0-10.45-.75,28.9,28.9,0,0,0-7.73,2.84c-3.17,1.7-6.26,3.54-9.35,5.38-1.33.8-2.58,1.73-3.84,2.63-1.69,1.21-3.4,2.42-5,3.71a1.7,1.7,0,0,0-.52,1.36c.08.63.77.59,1.26.66,1.14.18,2.3.23,3.42.51,3.56.9,7.11,1.89,10.67,2.84a18.67,18.67,0,0,0,6.88.5,38.57,38.57,0,0,0,10.56-2.91,46.68,46.68,0,0,0,7.94-4.27,12.54,12.54,0,0,0,4.51-5,30.15,30.15,0,0,1,1.58-3,2.29,2.29,0,0,1,2.91-.87,20.77,20.77,0,0,1,4,2c3.3,2.34,6.5,4.82,9.73,7.26.4.31.67.44,1,0a13.51,13.51,0,0,1,1.28-1.63c.49-.51.35-.79-.2-1.21-2.27-1.78-4.55-3.56-6.76-5.44a3.07,3.07,0,0,1-1.4-2.18,7.24,7.24,0,0,0-.36-2c-.48-1.38-1.16-2.71-1.57-4.11a26.67,26.67,0,0,1-.93-4.64c-.21-2.14-.19-4.31-1.33-6.28-1.58-2.73-5.37-9-5.44-9a4.1,4.1,0,0,1-.59-.5,32.52,32.52,0,0,0-6.46-5.89c-2.37-1.71-4.82-3.28-7.21-4.95-.91-.63-1.74-1.36-2.62-2a.87.87,0,0,0-1.26,1.19c.39.62.77,1.26,1.14,1.89a10.21,10.21,0,0,1,1.58,3.66,29.31,29.31,0,0,0,.89,4.34,53.73,53.73,0,0,0,4.79,10.88,20.25,20.25,0,0,0,4.29,5.73,31,31,0,0,1,3.05,3.49c1.07,1.25,2.06,2.57,3.2,3.73.88.89,2,1.54,2.92,2.39a19.18,19.18,0,0,1,1.66,2l-.13.17a4.33,4.33,0,0,1-.79-.19c-1.16-.47-2.33-.9-3.44-1.47-5.16-2.66-10.31-5.33-15.43-8.05-2.77-1.47-5.35-3.19-7-6.07-.86-1.53-1.85-3-1.68-4.8a44.74,44.74,0,0,0-.4-9.24,26.88,26.88,0,0,0-5.1-12.62,35.14,35.14,0,0,0-6.31-7,49.55,49.55,0,0,0-12.14-7.77,8.59,8.59,0,0,0-4.61-1c-1.6.25-2.08,1.25-1.19,2.69a35.33,35.33,0,0,0,2.78,3.94,27.12,27.12,0,0,1,3.37,5.34c1.95,4,3.46,8.13,5.93,11.85,1.16,1.76,2.27,3.55,3.43,5.31.83,1.26,1.75,2.45,2.54,3.73a9.06,9.06,0,0,0,3.43,3.41c1.35.69,2.74,1.25,4.13,1.84a6.14,6.14,0,0,1,3.89,4.34c.32,1.32-.22,2.08-1.53,1.91a45.66,45.66,0,0,1-5.4-1.08,28.61,28.61,0,0,1-12.16-6.38,5.82,5.82,0,0,1-2.27-5.17,13.49,13.49,0,0,0-.32-4.13,26.33,26.33,0,0,0-5.54-11c-1.91-2.43-4-4.68-6.12-7a57.38,57.38,0,0,0-4.75-4.86A26.62,26.62,0,0,0,165.76,420c-1.72-.19-2.52.71-2,2.42a31.91,31.91,0,0,0,2.37,5.81c1.59,2.81,3.44,5.48,5.22,8.19,2.17,3.31,4.44,6.55,6.54,9.9a13.66,13.66,0,0,0,5,4.69c2.24,1.24,4.54,2.36,6.8,3.59a21,21,0,0,1,2.7,1.74c.25.19.28.72.41,1.1-.28,0-.6.16-.83.05-2.23-1-4.54-1.69-6.5-3.35a27,27,0,0,0-8.62-5.07,42.88,42.88,0,0,0-8.26-1.72,92,92,0,0,0-10.18-.81,44,44,0,0,0-8.21.82c-4.46,1.28-10.85,3.73-12.78,5.46a2.56,2.56,0,0,0-1,2"
     id="path2" />
  <path
     d="M367.76,501.71s-25-10.91-25.19-61.76c0-2.4-.95-10.07-3.19-13.2-2.55-3.55-6.59-7.8-12.25-9.77-.79-.28-1.56-1.71,0-3.37,8.8-9.08,38.73-37.16,57.95-20.38a19.43,19.43,0,0,1,7.48,11.24c1.35,5.82,2.29,16.29,1.22,35.12,0,0,15.36-10.67,13.42-39a64.31,64.31,0,0,0-4-14.17c-2.23-5-5.23-11.54-7.82-16.49-.44-.84-2.84-4.91-3.56-6l-.89-1.32c-.31-.47-.67-1-1-1.56a34.42,34.42,0,0,1-1.62-3.16c-4-9.65-12.28-34.15-13.54-73.9,0,0-1.74-59.37-30.7-30.9-2.1,2.06-8.5,9.47-10,13.15-1.8,4.46-3.16,11.58-.41,21.31,0,0-19.57-3.51-25.43,18.31a43,43,0,0,0-.76,7.68c-.2,5.36.58,15.61.7,16.31.38,2.27.77,4.45,1.1,5.91,0,0-30.51-14.25-25.72,61a106.75,106.75,0,0,0,3.83,20.07c7.14,21.93,28.12,68.73,80.35,84.86"
     id="path3" />
  <path
     d="M517.27,475.4s.44-10.76-16.86-9c0,0,49.73-35.42,11.67-49.76,0,0,22.89-28.63-3.33-49.95-1.23-1-4.84-5.8-9.55-2.19a36.06,36.06,0,0,0-4.42,4.17s-29.84,48-57.95,58.73c0,0-41.08,13.79-51.9,45.44,0,0,108.33,63.15,132.34,2.52"
     id="path4" />
  <path
     d="M389.29,376.32s-11.55-19.5-13.69-35.09-3.36,30.41-3.36,30.41Z"
     id="path5" />
  <rect
     class="cls-1"
     width="800"
     height="800"
     id="rect5" />
  <rect
     class="cls-1"
     width="800"
     height="800"
     id="rect6" />
  <rect
     class="cls-1"
     width="800"
     height="800"
     id="rect7" />
  <rect
     class="cls-1"
     width="800"
     height="800"
     id="rect8" />
  <rect
     class="cls-1"
     width="800"
     height="800"
     id="rect9" />
  <rect
     class="cls-1"
     width="800"
     height="800"
     id="rect10" />
  <rect
     class="cls-1"
     width="800"
     height="800"
     id="rect11" />
  <rect
     class="cls-1"
     width="800"
     height="800"
     id="rect12" />
  <rect
     class="cls-1"
     width="800"
     height="800"
     id="rect13" />
  <rect
     class="cls-1"
     width="800"
     height="800"
     id="rect14" />
  <rect
     class="cls-1"
     width="800"
     height="800"
     id="rect15" />
  <rect
     class="cls-1"
     width="800"
     height="800"
     id="rect16" />
  <rect
     class="cls-1"
     width="800"
     height="800"
     id="rect17" />
  <rect
     class="cls-1"
     width="800"
     height="800"
     id="rect18" />
  <rect
     class="cls-1"
     width="800"
     height="800"
     id="rect19" />
  <rect
     class="cls-1"
     width="800"
     height="800"
     id="rect20" />
  <rect
     class="cls-1"
     width="800"
     height="800"
     id="rect21" />
  <path
     class="cls-2"
     d="M313.62,548.47a2.76,2.76,0,0,1,.88-.14,1,1,0,0,1,.55.14l.51.38.38-.51-3.32-2.43-.38.51.52.37c.34.25.46.5.37.74a1.79,1.79,0,0,1-.82.76l-5.21,2.83,1.25-6a1.53,1.53,0,0,1,.47-.82c.18-.13.45-.07.79.18l.25.18.38-.51-3.49-2.55-.38.51.34.25a1.05,1.05,0,0,1,.43.57,1.11,1.11,0,0,1,0,.65l-1.75,8.46-6.93,3.75a2.21,2.21,0,0,1-.95.22,1.55,1.55,0,0,1-.95-.31l-.34-.25-.37.51,3.23,2.37.38-.51-.17-.12a1.37,1.37,0,0,1-.47-.54.65.65,0,0,1,.13-.62,1.93,1.93,0,0,1,.49-.3l.75-.5,4.94-2.64-1.37,6.7a1,1,0,0,1-.16.4.68.68,0,0,1-.31.23q-.18.07-.6-.24l-.34-.25-.38.51,3.66,2.68.38-.51-.26-.19a1.35,1.35,0,0,1-.48-.68,2.33,2.33,0,0,1,0-1.13L307,552Z"
     id="path21" />
  <path
     class="cls-2"
     d="M320.23,551.81a1,1,0,0,1,.52.57.88.88,0,0,1-.15.65l-7.93,12.82a.84.84,0,0,1-.52.43,1,1,0,0,1-.74-.21l-2.06-1.27-.33.54,7.18,4.43.33-.54L314.47,568a1.12,1.12,0,0,1-.48-.54.78.78,0,0,1,.11-.68L322,553.92a.74.74,0,0,1,.56-.4,1,1,0,0,1,.69.18l2.07,1.27.33-.54L318.5,550l-.33.54Z"
     id="path22" />
  <path
     class="cls-2"
     d="M330,568.84l-3.94-2,6-6.77.1.05Zm-1.38,5.22a2.53,2.53,0,0,1-.25.71,1.27,1.27,0,0,1-.31.37c-.14.12-.4.09-.78-.1l-.37-.2-.29.57,4,2.07.29-.56-.28-.15a1.15,1.15,0,0,1-.54-.57,2,2,0,0,1-.05-1l4.06-16.65-1.65-.25-11,12.46a1.48,1.48,0,0,1-.79.61,1.08,1.08,0,0,1-.77-.11l-.29-.14-.29.56,3.47,1.79.29-.57-.28-.14c-.44-.23-.64-.49-.6-.79a2.29,2.29,0,0,1,.24-.82,4.93,4.93,0,0,1,.48-.7l2.68-3.13,4.22,2.17Z"
     id="path23" />
  <path
     class="cls-2"
     d="M343.24,575.57a2.92,2.92,0,0,1,.13,2.28,4.54,4.54,0,0,1-2,2.48,3.28,3.28,0,0,1-2.88-.07,4.77,4.77,0,0,1-2.39-2.08,6.71,6.71,0,0,1-.49-4.15l-.67,0-1.21,5.09.88-.2a1.15,1.15,0,0,1,.67,0,5.37,5.37,0,0,1,1.24.86,4.16,4.16,0,0,0,1.58,1.12,4.88,4.88,0,0,0,4.13.13,5,5,0,0,0,2.52-2.62,4.71,4.71,0,0,0,.18-3.3,9.06,9.06,0,0,0-2.45-3.57,15.6,15.6,0,0,1-2.66-3.35,2.52,2.52,0,0,1,.09-2,4.17,4.17,0,0,1,1.59-1.9,3.06,3.06,0,0,1,3,0,4.07,4.07,0,0,1,2.08,1.72,7.88,7.88,0,0,1,.64,3.53h.56l1.29-4.15a1.45,1.45,0,0,1-.67.35,1.09,1.09,0,0,1-.59-.08,3.83,3.83,0,0,1-1.1-.92,6.33,6.33,0,0,0-1.73-1.06,4.85,4.85,0,0,0-4-.14,4.39,4.39,0,0,0-2.38,2.27,3.78,3.78,0,0,0-.17,3.13,15.87,15.87,0,0,0,2.75,3.55A10.72,10.72,0,0,1,343.24,575.57Z"
     id="path24" />
  <path
     class="cls-2"
     d="M361.33,571.48a.72.72,0,0,1,.44-.51,1,1,0,0,1,.72,0l.4.13.2-.6-4.21-1.38-.2.6.4.13a1,1,0,0,1,.64.43.86.86,0,0,1,0,.67l-2.11,6.41-5.91-1.94,2.11-6.41a.77.77,0,0,1,.45-.52,1,1,0,0,1,.72,0l.4.13.19-.6-4.2-1.38-.2.6.4.13a1,1,0,0,1,.63.43.9.9,0,0,1,0,.67l-4.71,14.33a.87.87,0,0,1-.4.53,1,1,0,0,1-.77,0l-.5-.16-.19.6,4.4,1.45.2-.61-.5-.16a1.09,1.09,0,0,1-.59-.41.78.78,0,0,1,0-.69l2.41-7.31,5.91,1.94L355,585.29a.86.86,0,0,1-.39.53,1,1,0,0,1-.77,0l-.5-.16-.2.6,4.41,1.45.2-.61-.5-.16a1.05,1.05,0,0,1-.59-.41.78.78,0,0,1-.05-.69Z"
     id="path25" />
  <path
     class="cls-2"
     d="M368.86,582.9l-4.3-1,4.22-8,.1,0Zm-.11,5.4a2.5,2.5,0,0,1-.08.74,1.17,1.17,0,0,1-.21.44c-.11.15-.37.18-.78.08l-.41-.1-.15.62,4.41,1.07.15-.62-.31-.07a1.15,1.15,0,0,1-.66-.43,2,2,0,0,1-.3-1l0-17.14-1.66.14L361,586.74a1.43,1.43,0,0,1-.62.77,1.11,1.11,0,0,1-.78.08l-.31-.07-.14.62,3.79.92.15-.62-.31-.07c-.48-.12-.74-.33-.77-.62a2.46,2.46,0,0,1,0-.86,4.66,4.66,0,0,1,.3-.8l1.87-3.67,4.61,1.12Z"
     id="path26" />
  <text
     class="cls-3"
     transform="translate(387.09 594.04) rotate(4.59)"
     id="text26" />
  <path
     class="cls-2"
     d="M406.42,594.18a1,1,0,0,1-.68-.21.74.74,0,0,1-.26-.63v-7.7H409a1.8,1.8,0,0,1,1.53.63,3.2,3.2,0,0,1,.47,1.9v.42h.63v-6.11H411V583a1.72,1.72,0,0,1-2,2h-3.48v-6.75a.78.78,0,0,1,.27-.64,1,1,0,0,1,.68-.21h3a4.19,4.19,0,0,1,2.53.85,6.94,6.94,0,0,1,2,2.53l.52-.21-1.25-3.8-11,0v.64h.63a1.06,1.06,0,0,1,.74.21.86.86,0,0,1,.21.63l0,15.09a.86.86,0,0,1-.21.63,1.06,1.06,0,0,1-.74.21h-.74v.63h5.06v-.64Z"
     id="path27" />
  <path
     class="cls-2"
     d="M415.63,577.42a1,1,0,0,1,.75.15.87.87,0,0,1,.27.61l1.29,15a.87.87,0,0,1-.16.65,1,1,0,0,1-.71.28l-.63,0,.05.63,10.72-.92.8-4.2-.54-.17a5.84,5.84,0,0,1-1.5,2.94,4.11,4.11,0,0,1-2.6,1.12l-2.73.24a1.11,1.11,0,0,1-.7-.15.79.79,0,0,1-.32-.61l-.68-7.88,3.05-.26a1.77,1.77,0,0,1,1.58.5,2.88,2.88,0,0,1,.62,1.74l0,.42.63-.05-.53-6.2-.63,0,.05.63a2.29,2.29,0,0,1-.34,1.62,2,2,0,0,1-1.48.66l-3,.26-.56-6.52a.75.75,0,0,1,.2-.65,1.17,1.17,0,0,1,.67-.27l2.94-.25a3.19,3.19,0,0,1,2.17.6,7.82,7.82,0,0,1,2,2.21l.51-.25L425.34,576l-10.29.88.05.63Z"
     id="path28" />
  <path
     class="cls-2"
     d="M431.8,576.67A.78.78,0,0,1,432,576a1,1,0,0,1,.64-.31l.73-.12-.09-.62-4.9.75.1.63.62-.1a1,1,0,0,1,.76.1.89.89,0,0,1,.31.59l2.29,14.91a.79.79,0,0,1-.11.65,1,1,0,0,1-.69.33l-.73.11.09.62,10.74-1.65.31-4.21-.55-.13a5.5,5.5,0,0,1-1.14,3,3.79,3.79,0,0,1-2.37,1.28l-2.81.43a1.1,1.1,0,0,1-.71-.1.79.79,0,0,1-.36-.59Z"
     id="path29" />
  <path
     class="cls-2"
     d="M444.67,574.37a.73.73,0,0,1,.11-.67,1.07,1.07,0,0,1,.62-.37l.72-.17-.15-.61-4.82,1.13.14.62.62-.14a1,1,0,0,1,.76,0,.92.92,0,0,1,.36.57l3.45,14.68a.8.8,0,0,1-.06.66,1,1,0,0,1-.67.38l-.72.17.15.61,10.57-2.49,0-4.22-.56-.08a5.44,5.44,0,0,1-.9,3.08A3.75,3.75,0,0,1,452,589l-2.78.66a1.05,1.05,0,0,1-.71,0,.74.74,0,0,1-.4-.56Z"
     id="path30" />
  <path
     class="cls-2"
     d="M464.26,569.89a4.84,4.84,0,0,0-4.94-1.24,4.92,4.92,0,0,0-3.29,3.72,12.05,12.05,0,0,0,.47,6.82,11.72,11.72,0,0,0,3.72,5.9,4.76,4.76,0,0,0,8-2.51,11.91,11.91,0,0,0-.47-7A12.62,12.62,0,0,0,464.26,569.89Zm-6.78,2.34a3.17,3.17,0,0,1,2.07-2.87,3.11,3.11,0,0,1,3.57,1.29,17.26,17.26,0,0,1,2.72,5.55c1,3,1.31,5.24,1,6.7a3.16,3.16,0,0,1-2.11,2.72,3.21,3.21,0,0,1-3.29-1.1c-1.12-1.08-2.15-3.06-3.07-5.94A14.68,14.68,0,0,1,457.48,572.23Z"
     id="path31" />
  <path
     class="cls-2"
     d="M474.58,563.16l.24.59.29-.12a.93.93,0,0,1,.73,0,.84.84,0,0,1,.45.67l2.45,11-.19.08-5.75-9.84a1.08,1.08,0,0,1-.1-.65.68.68,0,0,1,.46-.41l.29-.12-.24-.59-3.32,1.36.24.59.3-.12a.84.84,0,0,1,.52,0,.8.8,0,0,1,.48.49l1.37,2.51,1.67,8.78-.19.08-6-10.09a.82.82,0,0,1-.05-.66.88.88,0,0,1,.51-.44l.29-.12-.24-.59-3.41,1.41.24.58.39-.16a.54.54,0,0,1,.51,0,1,1,0,0,1,.39.52l8.63,14.36.59-.24L474,570.83l.2-.09,5.8,9.71.59-.25-3.62-16.3a1.2,1.2,0,0,1,.06-.82.83.83,0,0,1,.36-.38l.39-.16-.24-.58Z"
     id="path32" />
  <path
     class="cls-2"
     d="M490.74,568a2.87,2.87,0,0,1,1.82,1.38,4.6,4.6,0,0,1,.59,3.13,3.35,3.35,0,0,1-1.93,2.16,4.81,4.81,0,0,1-3.13.46,6.65,6.65,0,0,1-3.48-2.31l-.47.47,3.09,4.23c.15-.31.29-.58.42-.8a1.15,1.15,0,0,1,.47-.48,5.08,5.08,0,0,1,1.46-.38,4.1,4.1,0,0,0,1.88-.48,4.79,4.79,0,0,0,2.41-6.68,4.69,4.69,0,0,0-2.39-2.28,9.26,9.26,0,0,0-4.31-.45,15,15,0,0,1-4.27-.15,2.47,2.47,0,0,1-1.45-1.33A4.2,4.2,0,0,1,481,562a3,3,0,0,1,1.95-2.22,4,4,0,0,1,2.66-.46,7.67,7.67,0,0,1,3.1,1.8l.37-.43L486.79,557a1.34,1.34,0,0,1-.16.73,1.15,1.15,0,0,1-.44.41,3.91,3.91,0,0,1-1.42.24,6.59,6.59,0,0,0-1.93.62,4.83,4.83,0,0,0-2.69,3,4.33,4.33,0,0,0,.18,3.27,3.76,3.76,0,0,0,2.27,2.16,15.69,15.69,0,0,0,4.48.21A11,11,0,0,1,490.74,568Z"
     id="path33" />
  <path
     class="cls-2"
     d="M499.38,551.53a.78.78,0,0,1-.11-.68,1.12,1.12,0,0,1,.48-.54l.36-.22-.33-.54L496,551.86l.33.54.36-.22a1,1,0,0,1,.74-.2.89.89,0,0,1,.51.43l3.51,5.76-5.31,3.24-3.51-5.76a.75.75,0,0,1-.11-.68,1.12,1.12,0,0,1,.48-.54l.36-.22-.33-.54L489.25,556l.32.54.36-.22a1,1,0,0,1,.74-.2.84.84,0,0,1,.51.43L499,569.4a.83.83,0,0,1,.15.65,1,1,0,0,1-.52.57l-.45.27.33.54,4-2.42-.33-.53-.45.27a1,1,0,0,1-.69.18.78.78,0,0,1-.56-.41l-4-6.57,5.31-3.24,4,6.57a.83.83,0,0,1,.15.65,1,1,0,0,1-.52.57l-.45.27.33.54,4-2.41-.33-.55-.45.28a1,1,0,0,1-.69.18.78.78,0,0,1-.56-.41Z"
     id="path34" />
  <path
     class="cls-2"
     d="M504.26,547.13a1,1,0,0,1,.72-.26.83.83,0,0,1,.54.39l8.84,12.22a.79.79,0,0,1,.2.63,1,1,0,0,1-.47.6l-2,1.43.37.51,6.83-4.95-.37-.51-2,1.42a1,1,0,0,1-.67.23.78.78,0,0,1-.59-.35l-8.84-12.22a.75.75,0,0,1-.16-.67,1.1,1.1,0,0,1,.43-.57l2-1.43-.37-.51L501.92,548l.37.51Z"
     id="path35" />
  <path
     class="cls-2"
     d="M522.16,544.52a5.53,5.53,0,0,0,2-3.32,4.53,4.53,0,0,0-1.22-3.8,4.36,4.36,0,0,0-3.24-1.61,5.79,5.79,0,0,0-3.95,1.63l-4.74,4,.41.48.48-.41a1.11,1.11,0,0,1,.7-.32.89.89,0,0,1,.57.35L522.9,553a.89.89,0,0,1,.25.62,1,1,0,0,1-.43.64l-.56.47.41.48,3.85-3.28-.41-.48-.56.48a1,1,0,0,1-.66.28.74.74,0,0,1-.61-.31l-4.51-5.3Z"
     id="path36" />
  <path
     class="cls-4"
     d="M519.26,546.16l-4.85-5.7a.79.79,0,0,1-.21-.66,1,1,0,0,1,.38-.6l1.13-1a4.41,4.41,0,0,1,3.1-1.32,4.26,4.26,0,0,1,2.78,1.72,3.91,3.91,0,0,1,1.19,3.28,4.39,4.39,0,0,1-1.51,2.53Z"
     id="path37" />
  <path
     class="cls-5"
     d="M586.42,309.62a205.23,205.23,0,0,1,24,96.56c0,113.8-92.25,206.05-206,206.05a206,206,0,0,1-178.1-102.35"
     id="path38" />
  <path
     class="cls-5"
     d="M198.3,406.18c0-113.8,92.25-206,206.05-206a205.36,205.36,0,0,1,79.87,16.05"
     id="path39" />
  <path
     class="cls-6"
     d="M592.43,306.57a211.88,211.88,0,0,1,24.7,99.61C617.13,523.7,521.86,619,404.35,619a212.69,212.69,0,0,1-185-107.67"
     id="path40" />
  <path
     class="cls-6"
     d="M191.56,406.18c0-117.52,95.27-212.78,212.79-212.78a212.15,212.15,0,0,1,84.14,17.28"
     id="path41" />
  <path
     d="M536.06,490.4A146.74,146.74,0,0,1,484.65,537,150,150,0,0,1,452,550.1a147.69,147.69,0,0,1-34.85,5.11,157,157,0,0,1-35.08-3l-2.16-.42-2.14-.54-4.28-1.07c-1.43-.33-2.83-.78-4.24-1.22l-4.21-1.3c-2.79-.91-5.52-2-8.28-3-2.7-1.16-5.4-2.32-8.07-3.53a147,147,0,0,1-54-43.51,164.86,164.86,0,0,0,55.64,39.95,154.51,154.51,0,0,0,32.69,10c2.81.46,5.6,1.08,8.44,1.37l4.24.55c1.41.2,2.84.24,4.26.36l4.26.32c1.42.09,2.85.07,4.27.1l4.28.07c.71,0,1.42.05,2.13,0l2.14-.1,4.27-.18c1.42-.07,2.85-.07,4.26-.26,2.83-.3,5.67-.57,8.5-.91l8.43-1.43c2.79-.58,5.55-1.29,8.34-1.9a157.33,157.33,0,0,0,32-12,164.28,164.28,0,0,0,53.21-43.13"
     id="path42" />
  <rect
     class="cls-1"
     width="800"
     height="800"
     id="rect42" />
  <path
     d="M458.87,324.29q1.83,0,1.83.51c0,.76-.69,1.14-2.05,1.14a5.69,5.69,0,0,1-3.63-1.25A19.45,19.45,0,0,1,458.87,324.29Zm-4.48-.18a3.15,3.15,0,0,1-.73-2q0-2.89,3.52-5.21a12.36,12.36,0,0,1,6.16-2.2c.22,0,.6,0,1.13,0a4.75,4.75,0,0,1,1.73.36,2,2,0,0,1,1.43,1.84,2.69,2.69,0,0,1-.61,1.63,1.7,1.7,0,0,1-1.34.78l-.73-.11q-.48,0-.48.33c0,.37.38.55,1.14.55a3.17,3.17,0,0,0,2.18-1,3.1,3.1,0,0,0,1-2.38,2.23,2.23,0,0,0-1.27-2.09,7.11,7.11,0,0,0-3.35-.68,17.8,17.8,0,0,0-7.19,1.58,10.76,10.76,0,0,0-4.5,3.37,4.34,4.34,0,0,0-.77,2.64,4.49,4.49,0,0,0,1.2,3q-8.13,2.6-11.5,7.95a5.59,5.59,0,0,0-1,3,4.77,4.77,0,0,0,2.5,4.16,12.5,12.5,0,0,0,6.78,1.59,17.55,17.55,0,0,0,11.43-3.66c2.52-2,3.78-4.14,3.78-6.42a4.26,4.26,0,0,0-.3-1.54Q464,328,461.36,328a10.08,10.08,0,0,0-6.67,2.72,5.62,5.62,0,0,0-2.31,4.25c0,1.51.58,2.28,1.76,2.31.49,0,.73-.05.73-.3s-.12-.26-.37-.36a1.21,1.21,0,0,1-1-1.28,4.3,4.3,0,0,1,.58-2.09,6.13,6.13,0,0,1,1.43-1.76q3.38-2.79,6-2.79a2,2,0,0,1,2.16,2.24q0,2.82-2.89,5.39a16,16,0,0,1-9.28,3.73,15.69,15.69,0,0,1-1.9.11,8.23,8.23,0,0,1-5-1.28,4,4,0,0,1-1.7-3.33,6,6,0,0,1,.7-2.72,13.84,13.84,0,0,1,4-4.65,18,18,0,0,1,6.07-3,9,9,0,0,0,2.38,1.11,9.48,9.48,0,0,0,3.08.54,3.53,3.53,0,0,0,3.19-1.36,1.35,1.35,0,0,0,.22-.66c0-.9-1.2-1.36-3.59-1.36A15,15,0,0,0,454.39,324.11Z"
     id="path43" />
  <path
     d="M486.48,336.33a21.89,21.89,0,0,0,3.87-3.68.92.92,0,0,0,.33-.59q0-.18-.24-.18c-.16,0-.46.24-.9.73a19.2,19.2,0,0,1-3.39,3.21,5.19,5.19,0,0,1-2.52,1.19,1.69,1.69,0,0,1-1.2-.33,1.15,1.15,0,0,1-.25-1,11.71,11.71,0,0,1,2.67-5c1.59-2,2.39-3.05,2.39-3.1a.8.8,0,0,0-.39-.64,1.41,1.41,0,0,0-.82-.27q-1.51,0-4.95,2.67s-1.36,1.18-4.07,3.45a29,29,0,0,1,1.54-3,14.46,14.46,0,0,0,1.43-2.76.7.7,0,0,0-.37-.57,1.36,1.36,0,0,0-.8-.26q-1.44,0-5.94,4.18-3,2.79-4.51,4.44a25.79,25.79,0,0,1,2.16-4.16,26.67,26.67,0,0,0,1.94-3.58c0-.46-.24-.69-.73-.69a1.33,1.33,0,0,0-1.14.55q-2.44,3.48-3.51,4.83a31.13,31.13,0,0,1-2.42,2.72.79.79,0,0,0-.3.53q0,.24.21.24c.13,0,.47-.27,1-.81l2.2-2.31a23.87,23.87,0,0,0-1.9,4.84,1.4,1.4,0,0,0,.35.88,1,1,0,0,0,.82.44,10,10,0,0,0,1.92-2.16c1.14-1.45,2.37-2.88,3.71-4.31a26,26,0,0,1,4.85-4c-1.32,2.71-2.11,4.34-2.38,4.91a17.62,17.62,0,0,0-1.65,4.61c0,.66.29,1,.88,1a.66.66,0,0,0,.62-.29,16.53,16.53,0,0,1,4.15-6,21.1,21.1,0,0,1,5.24-4,21.81,21.81,0,0,0-2.46,3.86,8.72,8.72,0,0,0-1.17,3.61q0,2.31,2.49,2.31A6.34,6.34,0,0,0,486.48,336.33Z"
     id="path44" />
  <path
     d="M509.61,336.33a21.89,21.89,0,0,0,3.87-3.68.92.92,0,0,0,.33-.59q0-.18-.24-.18c-.16,0-.46.24-.9.73a19.91,19.91,0,0,1-3.39,3.21,5.17,5.17,0,0,1-2.53,1.19,1.68,1.68,0,0,1-1.19-.33,1.15,1.15,0,0,1-.25-1,11.71,11.71,0,0,1,2.67-5c1.59-2,2.38-3.05,2.38-3.1A.81.81,0,0,0,510,327a1.42,1.42,0,0,0-.83-.27q-1.5,0-4.94,2.67s-1.36,1.18-4.07,3.45a26.92,26.92,0,0,1,1.54-3,14.46,14.46,0,0,0,1.43-2.76.72.72,0,0,0-.37-.57,1.37,1.37,0,0,0-.81-.26q-1.43,0-5.93,4.18-3,2.79-4.51,4.44a24.1,24.1,0,0,1,2.16-4.16,28.18,28.18,0,0,0,1.94-3.58c0-.46-.24-.69-.73-.69a1.33,1.33,0,0,0-1.14.55c-1.63,2.32-2.81,3.93-3.52,4.83a31,31,0,0,1-2.41,2.72.79.79,0,0,0-.3.53c0,.16.07.24.2.24s.47-.27,1-.81l2.2-2.31A24.26,24.26,0,0,0,489,337a1.46,1.46,0,0,0,.35.88,1.05,1.05,0,0,0,.83.44,10.3,10.3,0,0,0,1.92-2.16c1.14-1.45,2.37-2.88,3.7-4.31a25.72,25.72,0,0,1,4.86-4c-1.32,2.71-2.11,4.34-2.38,4.91a17.62,17.62,0,0,0-1.65,4.61c0,.66.29,1,.88,1a.66.66,0,0,0,.62-.29,16.5,16.5,0,0,1,4.14-6,21.47,21.47,0,0,1,5.24-4,22.39,22.39,0,0,0-2.45,3.86,8.72,8.72,0,0,0-1.17,3.61q0,2.31,2.49,2.31A6.34,6.34,0,0,0,509.61,336.33Z"
     id="path45" />
  <path
     d="M516.92,330.61q3.71-3.47,5.94-3.46a1,1,0,0,1,1,.51L519.93,333q-3.66,4.67-5.79,4.66c-.61,0-.92-.44-.92-1.32C513.22,334.83,514.46,332.92,516.92,330.61Zm7.15-3.48-.18-.49a1.6,1.6,0,0,0-1.61-.85q-3.12,0-6.86,3.72c-2.49,2.48-3.74,4.62-3.74,6.4a2.31,2.31,0,0,0,1,1.94,3.14,3.14,0,0,0,1.85.62c.65,0,1.7-.63,3.14-1.9l2.27-2.2a5.28,5.28,0,0,0-.15,1.25A2.36,2.36,0,0,0,521.4,338a1.59,1.59,0,0,0,.62.11q2.46,0,7.15-6.26a1.34,1.34,0,0,0,.33-.72q0-.27-.15-.27a.34.34,0,0,0-.26.14q-5.05,6.32-7,6.31c-.42,0-.69-.28-.81-.85a.78.78,0,0,1,0-.22c0-.87.75-2.43,2.27-4.67a33.8,33.8,0,0,0,2.27-3.54c0-.12-.12-.29-.37-.51a1.13,1.13,0,0,0-.77-.33l-.51.11S524.12,327.27,524.07,327.13Z"
     id="path46" />
  <path
     d="M532.28,327.15q-3,3.51-3.92,4.76a31,31,0,0,1-2.35,2.61.81.81,0,0,0-.29.53c0,.16.07.24.2.24s.47-.27,1-.81l2.2-2.31c-.49,1.08-.89,2-1.21,2.75a5,5,0,0,0-.48,1.81,2,2,0,0,0,.31,1.14,1,1,0,0,0,.87.46c.17,0,.78-.69,1.85-2.06s2.24-2.77,3.53-4.23a29,29,0,0,1,4.44-4l-2.35,3.81a9.4,9.4,0,0,0-1.46,4.54c0,1.32.59,2,1.79,2s3.42-1.72,6.45-5.16a1.63,1.63,0,0,0,.52-1c0-.24,0-.36-.11-.36s-.3.22-.66.66a2.87,2.87,0,0,1-.26.33q-4,4.42-5.61,4.43-.51,0-.51-1.17a5.82,5.82,0,0,1,1.12-2.93,31.81,31.81,0,0,1,2.73-3.67,24.59,24.59,0,0,0,1.46-2,.94.94,0,0,0,.08-.36c0-.62-.35-.92-1-.92a1.35,1.35,0,0,0-.33,0q-1.83,0-10.37,8.54.66-2.36,4-6.93a1.06,1.06,0,0,0,.11-.44c0-.51-.33-.77-1-.77A.91.91,0,0,0,532.28,327.15Z"
     id="path47" />
  <path
     d="M555.12,336.48a36.82,36.82,0,0,0,3.7-3.69.83.83,0,0,0,.25-.53c0-.16-.07-.24-.22-.24a.63.63,0,0,0-.44.26c-2.34,2.69-4.36,4.4-6,5.13a1.46,1.46,0,0,1-.59.15c-.37,0-.55-.33-.55-1a5.1,5.1,0,0,1,1.1-2.59c.73-1.06,1.8-2.43,3.19-4.12a6.71,6.71,0,0,0,1.54-2.13q0-1-1.32-1-.88,0-3.67,3.5t-3.81,4.53c-2,2-3.44,3-4.47,3-.29,0-.44-.22-.44-.66q0-1.5,2.22-4.66a30.23,30.23,0,0,1,3.68-4.51.63.63,0,0,0,.22-.47q0-.66-1-.66a2.64,2.64,0,0,0-1.94,1.1l-5.06,5.94a1.36,1.36,0,0,0-.33.62q0,.18.15.18a.51.51,0,0,0,.36-.14,26.71,26.71,0,0,1,2.17-2.2q-1.91,2.67-1.91,4.25v.26q.15,1.86,1.65,1.86c1.59,0,3.79-1.63,6.6-4.91-.08.32-.2.79-.39,1.4a5.9,5.9,0,0,0-.27,1.66,1.51,1.51,0,0,0,.6,1.23,2,2,0,0,0,1.21.48,5.58,5.58,0,0,0,.79,0A9,9,0,0,0,555.12,336.48Z"
     id="path48" />
  <path
     d="M566.15,328.54a6.48,6.48,0,0,1-2.92,3.24,7.67,7.67,0,0,1-3.72,1.49,1.41,1.41,0,0,1-.47-.07,16.11,16.11,0,0,1,3.59-4,5,5,0,0,1,2.66-1.43c.62,0,.93.15.93.44A.85.85,0,0,1,566.15,328.54ZM564,336.75a22.29,22.29,0,0,0,4.77-4.62,1.26,1.26,0,0,0,.29-.62c0-.15-.08-.22-.24-.22s-.35.15-.57.44a23.65,23.65,0,0,1-3.81,3.81q-2.9,2.46-4.71,2.46c-1.21,0-1.81-.64-1.81-1.91a4.21,4.21,0,0,1,.55-2.09,1.52,1.52,0,0,0,.51.08,10.63,10.63,0,0,0,5-1.87q3.11-1.87,3.1-3.93a1.43,1.43,0,0,0-.53-1.11,2,2,0,0,0-1.38-.46q-2.57,0-5.79,3.37T556.21,336c0,1.32.79,2.2,2.35,2.64a2.38,2.38,0,0,0,.73.11A8.63,8.63,0,0,0,564,336.75Z"
     id="path49" />
  <path
     d="M568.9,334.11c.19-.41.36-.75.51-1s.37-.61.68-1.08l1.37-2.1q.91-1.41,3.32-4.64l3.24-4.36a.88.88,0,0,0-.42-.61,1.3,1.3,0,0,0-.75-.27q-1.8,0-6.08,7a48.6,48.6,0,0,0-3.41,6.27,7.6,7.6,0,0,0-.63,2.77,2,2,0,0,0,.85,1.76,3.55,3.55,0,0,0,2,.56q2.46,0,6.12-4a9,9,0,0,0,1.5-1.9c0-.15-.08-.22-.25-.22s-.41.19-.7.58a17.58,17.58,0,0,1-3.7,3.49,6.15,6.15,0,0,1-3.12,1.28c-.8,0-1.21-.37-1.21-1.1A5.25,5.25,0,0,1,568.9,334.11Z"
     id="path50" />
  <path
     class="cls-7"
     d="M684.13,59.24l-.09.15a11.81,11.81,0,0,1-1.91.37,21.2,21.2,0,0,1-3,.8c-.68,0-1.35.08-2,.09-.88,0-4.71-.21-5.72-.68a1,1,0,0,0-.53-.09,6,6,0,0,0-1.05.27c-.61.22-1.21.45-1.78.72a11.74,11.74,0,0,0-1.26.68c-.08,0-.11.14-.16.21a1.73,1.73,0,0,0,.3.16c.21,0,.43.08.64.12a1.8,1.8,0,0,0,1.24-.18,9.8,9.8,0,0,1,1.3-.64,4,4,0,0,1,2.37-.25,15.09,15.09,0,0,1,3.83,1.45c.53.27,2.6.88,3,1.14s.59.42.87.64c.11.09.19.21,0,.3-.36.2-.69.42-1.05.61a9.7,9.7,0,0,1-3.83,1.17,8.11,8.11,0,0,1-1.9-.06,9.63,9.63,0,0,1-3.11-1,4.59,4.59,0,0,1-2.13-1.9,1.71,1.71,0,0,0-.88-.79,4.07,4.07,0,0,0-2-.27,8.86,8.86,0,0,0-2.38.52c-.66.24-1.31.51-2,.78-.43.18-.85.39-1.28.59a.25.25,0,0,0-.12.39c.09.14.2.17.42.1l1.27-.39a5.51,5.51,0,0,1,2.63-.14,10.47,10.47,0,0,1,2.14.69c.91.41,1.81.86,2.7,1.3.39.19.76.41,1.14.63s1,.58,1.5.88a.55.55,0,0,1,.21.32c0,.15-.16.14-.28.15-.28,0-.57,0-.84.11-.86.2-1.71.42-2.56.63a5,5,0,0,1-1.73.09,12.84,12.84,0,0,1-2.87-.72,16.61,16.61,0,0,1-2.28-1A4.37,4.37,0,0,1,659.64,66c-.19-.24-.37-.49-.58-.72a.74.74,0,0,0-.8-.21,4,4,0,0,0-.9.45c-.7.53-1.38,1.1-2.06,1.66-.08.07-.14.1-.25,0a5.08,5.08,0,0,0-.43-.38c-.15-.12-.13-.19,0-.29.48-.41,1-.81,1.41-1.25a.51.51,0,0,0,.23-.5,3.74,3.74,0,0,1,0-.66c0-.3.08-.61.09-.78,0-.35,0-1.49,0-1.87a9.61,9.61,0,0,1,.18-1.32l.36-.86c.05-.13.34-.66.36-.71a5.41,5.41,0,0,1,1.31-1.35c.5-.39,1-.75,1.55-1.14.19-.14,1-.28.94-.18s-.29.71-.33.85a5.37,5.37,0,0,0,0,.8,4.85,4.85,0,0,1,0,.66,9.8,9.8,0,0,1-.58,2.53,17.52,17.52,0,0,1-1.34,2.13,10.06,10.06,0,0,1-.59.86c-.18.21-.42.35-.61.55a2.51,2.51,0,0,0-.3.47l0,0,.19,0c.27-.11.54-.21.79-.34,1.16-.6,2.32-1.21,3.47-1.83a2.74,2.74,0,0,0,1.43-1.39,1.54,1.54,0,0,0,.14-1.12,11,11,0,0,1-.44-2.16,4.88,4.88,0,0,1,.56-2.94,5.89,5.89,0,0,1,1.2-1.61,9.2,9.2,0,0,1,2.65-1.78,2.07,2.07,0,0,1,1.12-.21c.42.07.6.3.46.64s-.9,1.71-1,2.15-.19.73-.28,1.1c0,.2-.34,1.06-.52,1.48-.38.87-.93,2.07-1,2.27a1.47,1.47,0,0,1-.67.78,10.13,10.13,0,0,1-.95.42,1.06,1.06,0,0,0-.74,1,.41.41,0,0,0,.51.45,10.84,10.84,0,0,0,1.31-.23,5.48,5.48,0,0,0,2.73-1.45,1,1,0,0,0,.28-1.2,3,3,0,0,1-.16-1,4.53,4.53,0,0,1,.76-2.56c.35-.56.76-1.08,1.16-1.61a9,9,0,0,1,.92-1.12A5.39,5.39,0,0,1,674.6,51c.43,0,.69.17.65.57a21.74,21.74,0,0,1-1.12,3.25c-.36.77-.75,1.52-1.09,2.29a2.24,2.24,0,0,1-1,1.08c-.5.29-1,.54-1.53.82a4,4,0,0,0-.58.4c-.06,0,0,.17,0,.25a.53.53,0,0,0,.21,0,4.72,4.72,0,0,0,1.46-.76,5.09,5.09,0,0,1,1.91-1.16,10.83,10.83,0,0,1,2-.37,25.4,25.4,0,0,1,3.61-.15,7.45,7.45,0,0,1,2,.24,9.29,9.29,0,0,1,2.69,1.3.81.81,0,0,1,.37.47"
     id="path51" />
  <path
     class="cls-7"
     d="M596.64,96.05l.08.1a3.29,3.29,0,0,0,.84.21,5.76,5.76,0,0,1,.87.22l.48.19a4.32,4.32,0,0,0,1.27.28c.46,0,.91.07,1.36.08s1.17,0,1.76,0a3.85,3.85,0,0,0,1.92-.44.51.51,0,0,1,.34-.06,5.2,5.2,0,0,1,.75.2c.43.17.87.35,1.3.54s.63.33.94.51a.58.58,0,0,1,.15.16c-.06,0-.11.09-.17.1a3.1,3.1,0,0,1-.42.08,1.19,1.19,0,0,1-.84-.13,8.88,8.88,0,0,0-1-.48,2.64,2.64,0,0,0-1.61-.21,7.27,7.27,0,0,0-2.29,1c-.31.19-2.16,1.09-2.31,1.25a.12.12,0,0,0,0,.21c.26.15.52.31.79.45a7.48,7.48,0,0,0,2.74.89,4.75,4.75,0,0,0,1.25,0,4.7,4.7,0,0,0,1.89-.7,2.2,2.2,0,0,0,1.1-1.36.84.84,0,0,1,.45-.56,2.25,2.25,0,0,1,1.26-.18,6.82,6.82,0,0,1,1.66.4c.48.18,1,.39,1.43.59l.94.44a.21.21,0,0,1,.15.28c0,.1-.11.12-.26.07l-.91-.29a3.42,3.42,0,0,0-1.76-.13,4.89,4.89,0,0,0-1.31.48c-.54.29-1.06.6-1.58.91-.22.13-.43.29-.65.44s-.57.41-.85.63a.36.36,0,0,0-.09.23c0,.11.13.1.22.11a5.81,5.81,0,0,1,.58.09c.6.15,1.2.32,1.8.48a3.24,3.24,0,0,0,1.16.08,6.45,6.45,0,0,0,1.78-.49,8.21,8.21,0,0,0,1.34-.72,2.12,2.12,0,0,0,.76-.84c.09-.18.17-.36.27-.52a.41.41,0,0,1,.49-.15,3.6,3.6,0,0,1,.68.34c.55.39,1.09.81,1.64,1.22.07.06.11.08.17,0a1.39,1.39,0,0,1,.21-.27c.09-.09.06-.14,0-.21-.39-.3-.77-.6-1.14-.92a.51.51,0,0,1-.24-.37,1,1,0,0,0-.06-.34c-.08-.24-.2-.46-.26-.7a3.49,3.49,0,0,1-.16-.78,2.44,2.44,0,0,0-.23-1.06c-.26-.46-.9-1.51-.92-1.53l-.1-.08a5.45,5.45,0,0,0-1.09-1L612,94c-.16-.11-.3-.23-.45-.34a.14.14,0,0,0-.21,0c-.06.06,0,.12,0,.2a3.37,3.37,0,0,1,.19.32,1.52,1.52,0,0,1,.27.61,6.06,6.06,0,0,0,.15.74,8.79,8.79,0,0,0,.81,1.83,3.45,3.45,0,0,0,.72,1,4.88,4.88,0,0,1,.52.59c.18.21.35.44.54.63s.34.26.49.41a1.88,1.88,0,0,1,.28.34l0,0a.31.31,0,0,1-.13,0c-.2-.08-.4-.15-.58-.24L612,98.65a2.73,2.73,0,0,1-1.18-1,1.37,1.37,0,0,1-.28-.81,7.42,7.42,0,0,0-.07-1.56,4.58,4.58,0,0,0-.86-2.13,6,6,0,0,0-1.07-1.18,8.21,8.21,0,0,0-2-1.31,1.44,1.44,0,0,0-.78-.17c-.27,0-.35.21-.2.46a6.08,6.08,0,0,0,.47.66,4.49,4.49,0,0,1,.57.91,19.63,19.63,0,0,0,1,2c.2.29.39.6.58.89s.3.42.43.63a1.54,1.54,0,0,0,.58.58l.7.31a1,1,0,0,1,.65.73c.06.23,0,.35-.25.33a7.15,7.15,0,0,1-.92-.19,4.88,4.88,0,0,1-2.05-1.07,1,1,0,0,1-.38-.88,2.4,2.4,0,0,0-.06-.7,4.48,4.48,0,0,0-.93-1.86c-.32-.41-.68-.79-1-1.18a8.83,8.83,0,0,0-.8-.82,4.56,4.56,0,0,0-2.47-1.1c-.29,0-.43.12-.33.41a4.2,4.2,0,0,0,.4,1c.26.48.58.93.88,1.39s.75,1.1,1.1,1.67a2.29,2.29,0,0,0,.85.79l1.15.61a2.66,2.66,0,0,1,.45.29s0,.12.07.19a.66.66,0,0,1-.14,0,4.37,4.37,0,0,1-1.09-.57,4.69,4.69,0,0,0-1.46-.86,8.29,8.29,0,0,0-1.4-.29,14.06,14.06,0,0,0-1.71-.13,7.74,7.74,0,0,0-1.39.13,7.64,7.64,0,0,0-2.16.93.42.42,0,0,0-.17.34"
     id="path52" />
  <path
     class="cls-7"
     d="M635.7,104s-4.22-1.85-4.25-10.43a5.19,5.19,0,0,0-.54-2.23,4.4,4.4,0,0,0-2.07-1.65c-.13,0-.26-.29,0-.57,1.48-1.54,6.54-6.28,9.78-3.44a3.27,3.27,0,0,1,1.27,1.89,22.63,22.63,0,0,1,.2,5.94s2.6-1.81,2.27-6.6a10.58,10.58,0,0,0-.68-2.39c-.38-.85-.88-1.95-1.32-2.79-.07-.14-.48-.83-.6-1l-.15-.22c0-.08-.12-.17-.17-.26a5.4,5.4,0,0,1-.27-.54,35.88,35.88,0,0,1-2.29-12.48s-.3-10-5.19-5.22A10.67,10.67,0,0,0,630,64.19a5.41,5.41,0,0,0-.07,3.6,3.82,3.82,0,0,0-4.3,3.1,8.92,8.92,0,0,0-.13,1.29c0,.91.1,2.64.12,2.76.07.38.13.75.19,1,0,0-5.15-2.41-4.34,10.31a18,18,0,0,0,.64,3.39c1.21,3.7,4.75,11.6,13.57,14.33"
     id="path53" />
  <path
     class="cls-7"
     d="M661,99.52s.08-1.81-2.84-1.51c0,0,8.39-6,2-8.4,0,0,3.86-4.84-.57-8.44-.2-.17-.81-1-1.61-.37a6.26,6.26,0,0,0-.74.7s-5,8.11-9.79,9.92c0,0-6.94,2.33-8.77,7.68,0,0,18.3,10.66,22.35.42"
     id="path54" />
  <path
     class="cls-7"
     d="M639.34,82.79A19.8,19.8,0,0,1,637,76.86c-.36-2.63-.57,5.14-.57,5.14Z"
     id="path55" />
  <path
     class="cls-8"
     d="M626.56,111.86l.15,0a.12.12,0,0,1,.09,0l.09.06.06-.09-.56-.41-.06.09.08.06c.06,0,.08.08.07.13a.36.36,0,0,1-.14.13l-.88.47.21-1a.26.26,0,0,1,.08-.14s.07,0,.13,0l0,0,.07-.08-.59-.43-.07.08.06,0a.17.17,0,0,1,.07.1.21.21,0,0,1,0,.11l-.29,1.43-1.17.63a.29.29,0,0,1-.16,0,.28.28,0,0,1-.16,0l-.06,0-.06.08.54.4.06-.08,0,0a.14.14,0,0,1-.08-.09.1.1,0,0,1,0-.1.21.21,0,0,1,.08,0l.13-.08.83-.45-.23,1.13a.09.09,0,0,1,0,.07.1.1,0,0,1-.05,0l-.1,0-.06,0-.06.09.62.45.06-.08,0,0a.15.15,0,0,1-.08-.11.38.38,0,0,1,0-.19l.3-1.46Z"
     id="path56" />
  <path
     class="cls-8"
     d="M627.68,112.43c.05,0,.08.06.08.09a.15.15,0,0,1,0,.11l-1.34,2.17s-.06.07-.09.07a.15.15,0,0,1-.12,0l-.35-.22-.06.09,1.21.75.06-.09-.35-.21a.22.22,0,0,1-.08-.09.17.17,0,0,1,0-.12l1.34-2.17a.11.11,0,0,1,.09-.06.14.14,0,0,1,.12,0l.35.21.06-.09-1.22-.75,0,.09Z"
     id="path57" />
  <path
     class="cls-8"
     d="M629.33,115.31l-.67-.35,1-1.14h0Zm-.24.88a.41.41,0,0,1,0,.12l0,.06s-.07,0-.13,0l-.07,0,0,.09.68.35,0-.09,0,0a.2.2,0,0,1-.09-.09.33.33,0,0,1,0-.18l.68-2.81-.27,0-1.87,2.1a.19.19,0,0,1-.13.1.15.15,0,0,1-.13,0l0,0-.05.1.59.3,0-.1,0,0c-.08,0-.11-.08-.1-.13a.33.33,0,0,1,0-.14.49.49,0,0,1,.08-.12l.45-.53.71.37Z"
     id="path58" />
  <path
     class="cls-8"
     d="M631.56,116.44a.49.49,0,0,1,0,.39.74.74,0,0,1-.34.42.54.54,0,0,1-.48,0,.83.83,0,0,1-.41-.35,1.14,1.14,0,0,1-.08-.7h-.11L630,117l.15,0a.14.14,0,0,1,.11,0,.69.69,0,0,1,.21.14.66.66,0,0,0,.27.19.82.82,0,0,0,.7,0,.79.79,0,0,0,.42-.44.83.83,0,0,0,0-.56,1.65,1.65,0,0,0-.42-.6,2.45,2.45,0,0,1-.45-.56.45.45,0,0,1,0-.34.64.64,0,0,1,.27-.32.52.52,0,0,1,.5,0,.68.68,0,0,1,.35.29,1.3,1.3,0,0,1,.1.6h.1l.22-.7a.21.21,0,0,1-.11.05.14.14,0,0,1-.11,0,.85.85,0,0,1-.18-.15.88.88,0,0,0-.29-.18.82.82,0,0,0-.68,0,.73.73,0,0,0-.4.39.62.62,0,0,0,0,.53,2.72,2.72,0,0,0,.46.59A1.86,1.86,0,0,1,631.56,116.44Z"
     id="path59" />
  <path
     class="cls-8"
     d="M634.62,115.75a.16.16,0,0,1,.07-.09.17.17,0,0,1,.12,0l.07,0,0-.1-.71-.24,0,.1.07,0s.09,0,.1.07a.14.14,0,0,1,0,.11l-.36,1.09-1-.33.36-1.09a.11.11,0,0,1,.07-.08.13.13,0,0,1,.12,0l.07,0,0-.1-.71-.23,0,.1.07,0a.23.23,0,0,1,.11.07.24.24,0,0,1,0,.12l-.8,2.42a.16.16,0,0,1-.07.09.2.2,0,0,1-.13,0l-.08,0,0,.1.74.25,0-.1-.08,0a.15.15,0,0,1-.1-.07.16.16,0,0,1,0-.12l.41-1.23,1,.33-.41,1.23a.11.11,0,0,1-.07.09.14.14,0,0,1-.13,0l-.08,0,0,.1.74.25,0-.11-.08,0a.2.2,0,0,1-.1-.07.16.16,0,0,1,0-.12Z"
     id="path60" />
  <path
     class="cls-8"
     d="M635.89,117.68l-.73-.18.71-1.34h0Zm0,.91a.62.62,0,0,1,0,.13l0,.07s-.06,0-.13,0h-.07l0,.1.75.18,0-.1h-.05a.28.28,0,0,1-.11-.08.3.3,0,0,1-.05-.16v-2.9l-.28,0-1.32,2.49a.29.29,0,0,1-.11.13.19.19,0,0,1-.13,0h-.05l0,.1.64.16,0-.1,0,0c-.08,0-.13,0-.13-.1a.26.26,0,0,1,0-.15.31.31,0,0,1,0-.13l.31-.62.78.19Z"
     id="path61" />
  <text
     class="cls-9"
     transform="translate(638.93 119.52) rotate(4.59)"
     id="text61" />
  <path
     class="cls-8"
     d="M642.23,119.59a.18.18,0,0,1-.11,0,.13.13,0,0,1,0-.11v-1.3h.59a.3.3,0,0,1,.26.11.56.56,0,0,1,.08.32v.07h.11v-1H643v.09a.38.38,0,0,1-.08.26.37.37,0,0,1-.26.08h-.59V116.9a.12.12,0,0,1,0-.11.16.16,0,0,1,.12,0h.5a.68.68,0,0,1,.42.15,1.08,1.08,0,0,1,.34.43l.09,0-.21-.64h-1.85v.11h.1a.17.17,0,0,1,.13,0,.15.15,0,0,1,0,.1v2.55a.12.12,0,0,1,0,.11.17.17,0,0,1-.12,0h-.13v.11h.86v-.1Z"
     id="path62" />
  <path
     class="cls-8"
     d="M643.79,116.75a.17.17,0,0,1,.12,0s0,0,.05.1l.22,2.54a.18.18,0,0,1,0,.11s-.06,0-.12,0h-.11v.11l1.81-.15.14-.71-.09,0a1,1,0,0,1-.26.49.62.62,0,0,1-.44.19l-.46,0a.17.17,0,0,1-.12,0,.16.16,0,0,1,0-.1l-.11-1.34.51,0a.33.33,0,0,1,.27.08.51.51,0,0,1,.1.3v.07h.11l-.09-1h-.11v.11a.36.36,0,0,1-.06.27.31.31,0,0,1-.25.11l-.51,0-.1-1.1a.12.12,0,0,1,0-.11.19.19,0,0,1,.11,0l.5,0a.52.52,0,0,1,.36.1,1.37,1.37,0,0,1,.34.37l.09,0-.25-.58-1.74.14v.11Z"
     id="path63" />
  <path
     class="cls-8"
     d="M646.52,116.63a.1.1,0,0,1,0-.11.17.17,0,0,1,.11-.06l.12,0,0-.1-.82.13v.1h.11a.18.18,0,0,1,.13,0,.19.19,0,0,1,0,.1l.39,2.52a.18.18,0,0,1,0,.11.14.14,0,0,1-.12,0l-.12,0v.11l1.82-.28,0-.71-.1,0a.85.85,0,0,1-.19.5.64.64,0,0,1-.4.22l-.47.07a.16.16,0,0,1-.12,0,.09.09,0,0,1-.06-.09Z"
     id="path64" />
  <path
     class="cls-8"
     d="M648.69,116.24a.13.13,0,0,1,0-.11.18.18,0,0,1,.11-.07l.12,0,0-.11-.81.19,0,.11.11,0a.15.15,0,0,1,.12,0,.15.15,0,0,1,.06.09l.59,2.48a.16.16,0,0,1,0,.12.17.17,0,0,1-.11.06l-.13,0,0,.1,1.78-.42V118l-.09,0a.85.85,0,0,1-.16.52.63.63,0,0,1-.38.25l-.47.11a.17.17,0,0,1-.12,0s-.05,0-.06-.09Z"
     id="path65" />
  <path
     class="cls-8"
     d="M652,115.48a.82.82,0,0,0-1.39.42,2,2,0,0,0,.08,1.15,1.94,1.94,0,0,0,.63,1,.83.83,0,0,0,.8.19.85.85,0,0,0,.55-.61,2.09,2.09,0,0,0-.08-1.19A2.21,2.21,0,0,0,652,115.48Zm-1.14.4a.51.51,0,0,1,.95-.27,3,3,0,0,1,.46.94,2.52,2.52,0,0,1,.17,1.13.53.53,0,0,1-.35.46.54.54,0,0,1-.56-.19,2.45,2.45,0,0,1-.52-1A2.38,2.38,0,0,1,650.86,115.88Z"
     id="path66" />
  <path
     class="cls-8"
     d="M653.74,114.35l0,.09.05,0a.28.28,0,0,1,.13,0,.15.15,0,0,1,.07.12l.42,1.85h0l-1-1.66a.14.14,0,0,1,0-.11s0,0,.07-.07l0,0,0-.1-.56.23,0,.1,0,0a.14.14,0,0,1,.09,0s.06,0,.08.08l.23.43.29,1.48h0l-1-1.7a.14.14,0,0,1,0-.11.15.15,0,0,1,.08-.08l0,0,0-.09-.58.23,0,.1.07,0a.1.1,0,0,1,.09,0,.13.13,0,0,1,.06.08l1.46,2.43.1,0-.37-1.89h0l1,1.64.1,0-.61-2.75a.21.21,0,0,1,0-.14.17.17,0,0,1,.06-.06l.07,0,0-.1Z"
     id="path67" />
  <path
     class="cls-8"
     d="M656.47,115.16a.48.48,0,0,1,.31.23.77.77,0,0,1,.1.53.58.58,0,0,1-.33.36.75.75,0,0,1-.53.08,1.1,1.1,0,0,1-.58-.39l-.08.08.52.71.07-.13a.15.15,0,0,1,.08-.08.85.85,0,0,1,.25-.07.6.6,0,0,0,.31-.08.83.83,0,0,0,.47-.51.8.8,0,0,0-.06-.61.76.76,0,0,0-.4-.39,1.58,1.58,0,0,0-.73-.08,2.76,2.76,0,0,1-.72,0,.43.43,0,0,1-.25-.23.79.79,0,0,1-.07-.41.53.53,0,0,1,.33-.38.75.75,0,0,1,.45-.08,1.32,1.32,0,0,1,.53.31l.06-.07-.39-.62a.21.21,0,0,1,0,.12.19.19,0,0,1-.08.07.81.81,0,0,1-.24,0,.94.94,0,0,0-.32.11.8.8,0,0,0-.46.5.73.73,0,0,0,0,.55.64.64,0,0,0,.39.36,2.3,2.3,0,0,0,.76,0A1.76,1.76,0,0,1,656.47,115.16Z"
     id="path68" />
  <path
     class="cls-8"
     d="M657.93,112.38a.15.15,0,0,1,0-.11.18.18,0,0,1,.08-.09l.06,0,0-.09-.64.39.06.09.06,0a.15.15,0,0,1,.12,0,.18.18,0,0,1,.09.07l.59,1-.9.55-.59-1a.17.17,0,0,1,0-.12.32.32,0,0,1,.08-.09l.06,0,0-.09-.64.39.06.09.06,0a.24.24,0,0,1,.12,0,.22.22,0,0,1,.09.08l1.32,2.17a.13.13,0,0,1,0,.11.26.26,0,0,1-.09.1l-.07,0,0,.09.67-.41-.06-.09-.07.05-.12,0a.13.13,0,0,1-.09-.07l-.68-1.11.9-.55.67,1.11a.13.13,0,0,1,0,.11.17.17,0,0,1-.09.1l-.07,0,0,.09.67-.41-.05-.09-.08,0a.14.14,0,0,1-.12,0,.1.1,0,0,1-.09-.06Z"
     id="path69" />
  <path
     class="cls-8"
     d="M658.76,111.64a.16.16,0,0,1,.12,0,.18.18,0,0,1,.09.07l1.49,2.06a.19.19,0,0,1,0,.11.24.24,0,0,1-.08.1l-.34.24.07.09,1.15-.84-.06-.08-.33.24a.19.19,0,0,1-.12,0,.15.15,0,0,1-.1-.06l-1.49-2.07a.12.12,0,0,1,0-.11.19.19,0,0,1,.08-.1l.33-.24-.06-.08-1.16.83.06.09Z"
     id="path70" />
  <path
     class="cls-10"
     d="M662.43,112.38l-.09.08a.19.19,0,0,1-.12,0,.1.1,0,0,1-.1,0l-.76-.89.42-.36a1,1,0,0,0,.33-.56.77.77,0,0,0-.21-.65.73.73,0,0,0-.54-.27,1,1,0,0,0-.67.28l-.8.68.07.08.08-.07a.16.16,0,0,1,.12,0,.12.12,0,0,1,.09.06l1.65,1.94a.16.16,0,0,1,.05.1.23.23,0,0,1-.08.11l-.09.08.07.08.65-.55Z"
     id="path71" />
  <path
     class="cls-11"
     d="M672.63,71.53a34.81,34.81,0,0,1-60.83,33.82"
     id="path72" />
  <path
     class="cls-11"
     d="M607.08,87.83a34.82,34.82,0,0,1,48.29-32.09"
     id="path73" />
  <path
     class="cls-12"
     d="M673.65,71a35.95,35.95,0,0,1-63,34.58"
     id="path74" />
  <path
     class="cls-12"
     d="M605.94,87.83a36,36,0,0,1,50.15-33"
     id="path75" />
  <path
     class="cls-7"
     d="M664.13,102.06a24.83,24.83,0,0,1-8.68,7.86,25.53,25.53,0,0,1-5.51,2.22,24.44,24.44,0,0,1-5.89.86,26.09,26.09,0,0,1-5.92-.51l-.37-.07-.36-.09-.72-.18-.72-.21-.71-.22c-.47-.15-.93-.34-1.4-.5l-1.36-.6a24.8,24.8,0,0,1-9.13-7.35,27.83,27.83,0,0,0,9.4,6.75,26.68,26.68,0,0,0,5.52,1.69c.48.07,1,.18,1.43.23l.71.09c.24,0,.48,0,.72.06l.72.06h1.81l.36,0,.72,0c.24,0,.48,0,.72,0l1.43-.16,1.43-.24,1.4-.32a26.35,26.35,0,0,0,5.41-2,27.72,27.72,0,0,0,9-7.28"
     id="path76" />
  <path
     class="cls-7"
     d="M651.09,74c.21,0,.31,0,.31.09s-.12.19-.35.19a1,1,0,0,1-.61-.21A3.79,3.79,0,0,1,651.09,74Zm-.76,0a.52.52,0,0,1-.12-.33,1.09,1.09,0,0,1,.59-.88,2.05,2.05,0,0,1,1-.37h.2a.83.83,0,0,1,.29.06.33.33,0,0,1,.24.31.5.5,0,0,1-.1.28.29.29,0,0,1-.23.13l-.12,0c-.06,0-.08,0-.08.06s.06.09.19.09a.53.53,0,0,0,.37-.16.57.57,0,0,0,.17-.41.38.38,0,0,0-.21-.35,1.28,1.28,0,0,0-.57-.11,3.1,3.1,0,0,0-1.21.26,1.83,1.83,0,0,0-.76.57.73.73,0,0,0-.13.45.78.78,0,0,0,.2.5,3.41,3.41,0,0,0-1.94,1.34.93.93,0,0,0-.16.51.8.8,0,0,0,.42.7,2.09,2.09,0,0,0,1.14.27,3,3,0,0,0,1.94-.62,1.4,1.4,0,0,0,.63-1.08.6.6,0,0,0,0-.26c-.07-.19-.26-.28-.56-.28a1.69,1.69,0,0,0-1.13.46.94.94,0,0,0-.39.72q0,.38.3.39c.08,0,.12,0,.12,0s0,0-.06-.06a.21.21,0,0,1-.17-.22.67.67,0,0,1,.1-.35,1,1,0,0,1,.24-.3,1.71,1.71,0,0,1,1-.47c.24,0,.36.13.36.38a1.25,1.25,0,0,1-.48.91,2.7,2.7,0,0,1-1.57.63l-.32,0a1.44,1.44,0,0,1-.85-.22.67.67,0,0,1-.29-.56,1,1,0,0,1,.12-.46,2.36,2.36,0,0,1,.67-.79,3,3,0,0,1,1-.51,1.36,1.36,0,0,0,.4.19,1.63,1.63,0,0,0,.52.09.6.6,0,0,0,.54-.23.3.3,0,0,0,0-.11c0-.16-.21-.23-.61-.23A2.66,2.66,0,0,0,650.33,74Z"
     id="path77" />
  <path
     class="cls-7"
     d="M655.75,76a3.54,3.54,0,0,0,.66-.63.16.16,0,0,0,.05-.09s0,0,0,0-.07,0-.15.13a3.15,3.15,0,0,1-.57.54.91.91,0,0,1-.43.2.32.32,0,0,1-.2-.05.19.19,0,0,1,0-.17,1.93,1.93,0,0,1,.45-.84c.27-.34.4-.52.4-.52a.13.13,0,0,0-.06-.11.27.27,0,0,0-.14,0,1.79,1.79,0,0,0-.84.45s-.23.2-.69.59c0-.06.11-.23.26-.51a2.77,2.77,0,0,0,.25-.47.15.15,0,0,0-.07-.1.28.28,0,0,0-.13,0c-.16,0-.5.24-1,.71-.33.31-.59.56-.76.75a4.93,4.93,0,0,1,.37-.71,4.36,4.36,0,0,0,.33-.6c0-.08,0-.12-.13-.12a.23.23,0,0,0-.19.09c-.28.4-.47.67-.59.82a5.65,5.65,0,0,1-.41.46.11.11,0,0,0-.05.09s0,0,0,0,.08,0,.17-.14l.37-.39a4.4,4.4,0,0,0-.32.82.24.24,0,0,0,.06.15.17.17,0,0,0,.14.07,2.14,2.14,0,0,0,.33-.36c.19-.24.4-.49.62-.73a4.36,4.36,0,0,1,.82-.68l-.4.83a3,3,0,0,0-.28.78c0,.11.05.17.15.17a.11.11,0,0,0,.1,0,3.06,3.06,0,0,1,.7-1,3.67,3.67,0,0,1,.89-.67,4.3,4.3,0,0,0-.42.65,1.46,1.46,0,0,0-.19.61q0,.39.42.39A1,1,0,0,0,655.75,76Z"
     id="path78" />
  <path
     class="cls-7"
     d="M659.66,76a3.5,3.5,0,0,0,.65-.63.14.14,0,0,0,.06-.09s0,0,0,0-.08,0-.15.13a3.54,3.54,0,0,1-.58.54.89.89,0,0,1-.42.2.3.3,0,0,1-.2-.05.2.2,0,0,1-.05-.17,2.17,2.17,0,0,1,.45-.84l.41-.52a.12.12,0,0,0-.07-.11.24.24,0,0,0-.14,0,1.73,1.73,0,0,0-.83.45s-.23.2-.69.59a3.9,3.9,0,0,1,.26-.51,2.33,2.33,0,0,0,.24-.47.14.14,0,0,0-.06-.1.33.33,0,0,0-.14,0c-.16,0-.49.24-1,.71-.34.31-.59.56-.76.75a4.45,4.45,0,0,1,.36-.71,4.36,4.36,0,0,0,.33-.6.11.11,0,0,0-.12-.12.22.22,0,0,0-.19.09c-.28.4-.48.67-.6.82a4.24,4.24,0,0,1-.41.46.14.14,0,0,0-.05.09,0,0,0,0,0,0,0s.08,0,.17-.14l.37-.39a4.4,4.4,0,0,0-.32.82.24.24,0,0,0,.06.15.16.16,0,0,0,.14.07,1.9,1.9,0,0,0,.32-.36c.19-.24.4-.49.63-.73a4.06,4.06,0,0,1,.82-.68c-.23.46-.36.74-.41.83a3.3,3.3,0,0,0-.27.78c0,.11,0,.17.14.17a.13.13,0,0,0,.11,0,2.79,2.79,0,0,1,.7-1,3.65,3.65,0,0,1,.88-.67,4.29,4.29,0,0,0-.41.65,1.51,1.51,0,0,0-.2.61q0,.39.42.39A1.05,1.05,0,0,0,659.66,76Z"
     id="path79" />
  <path
     class="cls-7"
     d="M660.89,75.07a1.75,1.75,0,0,1,1-.58.16.16,0,0,1,.16.08l-.66.91c-.41.52-.74.78-1,.78s-.15-.07-.15-.22S660.48,75.46,660.89,75.07Zm1.21-.59,0-.08a.26.26,0,0,0-.27-.14,1.78,1.78,0,0,0-1.16.62A1.72,1.72,0,0,0,660,76a.39.39,0,0,0,.17.32.53.53,0,0,0,.31.11,1.08,1.08,0,0,0,.53-.32l.38-.37a1.49,1.49,0,0,0,0,.21.39.39,0,0,0,.27.4.2.2,0,0,0,.11,0c.27,0,.67-.35,1.2-1.06a.22.22,0,0,0,.06-.12s0,0,0,0l0,0c-.57.71-1,1.07-1.18,1.07-.07,0-.11,0-.13-.15a0,0,0,0,1,0,0,1.85,1.85,0,0,1,.39-.79c.25-.38.38-.58.38-.6s0,0-.06-.09a.24.24,0,0,0-.13,0l-.09,0A.11.11,0,0,1,662.1,74.48Z"
     id="path80" />
  <path
     class="cls-7"
     d="M663.49,74.49c-.34.39-.56.66-.66.8s-.25.29-.4.44a.14.14,0,0,0,0,.09s0,0,0,0,.08,0,.17-.14l.38-.39c-.09.19-.15.34-.21.47a1,1,0,0,0-.08.3.42.42,0,0,0,.05.2.18.18,0,0,0,.15.07s.13-.11.31-.34.38-.47.6-.72a5.47,5.47,0,0,1,.75-.68l-.4.65a1.64,1.64,0,0,0-.25.77c0,.22.11.33.31.33s.58-.29,1.09-.87a.26.26,0,0,0,.08-.16s0-.07,0-.07-.05,0-.12.12l0,0c-.45.5-.76.75-1,.75s-.08-.07-.08-.2a1,1,0,0,1,.19-.49,4.7,4.7,0,0,1,.46-.62,2.54,2.54,0,0,0,.24-.34.14.14,0,0,0,0-.06q0-.15-.18-.15h0c-.21,0-.79.48-1.75,1.45a4.06,4.06,0,0,1,.66-1.17.12.12,0,0,0,0-.08c0-.09,0-.13-.16-.13S663.53,74.44,663.49,74.49Z"
     id="path81" />
  <path
     class="cls-7"
     d="M667.35,76.06a7.25,7.25,0,0,0,.62-.62.12.12,0,0,0,0-.09s0,0,0,0a.1.1,0,0,0-.08,0,3,3,0,0,1-1,.87.2.2,0,0,1-.1,0c-.06,0-.09,0-.09-.16a.88.88,0,0,1,.18-.44c.13-.18.31-.41.54-.7s.26-.31.26-.36-.07-.17-.22-.17-.3.2-.62.59-.53.65-.64.77c-.33.34-.58.51-.76.51s-.07,0-.07-.11a1.67,1.67,0,0,1,.37-.79,5.52,5.52,0,0,1,.62-.76.09.09,0,0,0,0-.08c0-.07,0-.11-.17-.11a.41.41,0,0,0-.32.19l-.86,1a.29.29,0,0,0,0,.1s0,0,0,0,0,0,.06,0,.25-.26.37-.37a1.34,1.34,0,0,0-.32.72v0c0,.21.11.32.28.32s.63-.28,1.11-.83a1.32,1.32,0,0,1-.07.23,1,1,0,0,0,0,.28.24.24,0,0,0,.1.21.37.37,0,0,0,.2.08h.14A1.46,1.46,0,0,0,667.35,76.06Z"
     id="path82" />
  <path
     class="cls-7"
     d="M669.21,74.72a1.14,1.14,0,0,1-.49.55,1.32,1.32,0,0,1-.63.25H668a2.67,2.67,0,0,1,.6-.68.89.89,0,0,1,.45-.24c.11,0,.16,0,.16.08A.11.11,0,0,1,669.21,74.72Zm-.36,1.39a4,4,0,0,0,.8-.78.17.17,0,0,0,.05-.11s0,0,0,0a.13.13,0,0,0-.09.07,3.59,3.59,0,0,1-.65.64,1.38,1.38,0,0,1-.79.42.28.28,0,0,1-.31-.32.74.74,0,0,1,.09-.36l.09,0a1.81,1.81,0,0,0,.85-.32c.35-.21.53-.43.53-.66a.23.23,0,0,0-.09-.19.36.36,0,0,0-.24-.08,1.46,1.46,0,0,0-1,.57,1.56,1.56,0,0,0-.55,1c0,.23.13.38.4.45l.12,0A1.51,1.51,0,0,0,668.85,76.11Z"
     id="path83" />
  <path
     class="cls-7"
     d="M669.67,75.66c0-.07.06-.13.09-.17l.11-.18.24-.36c.1-.16.29-.42.56-.78s.45-.61.54-.74a.13.13,0,0,0-.07-.1.21.21,0,0,0-.12,0c-.21,0-.55.4-1,1.18a8,8,0,0,0-.58,1.06,1.28,1.28,0,0,0-.1.47.31.31,0,0,0,.14.29.56.56,0,0,0,.35.1c.27,0,.62-.23,1-.68a1.52,1.52,0,0,0,.25-.32s0,0,0,0-.07,0-.12.1a3.08,3.08,0,0,1-.62.59,1.07,1.07,0,0,1-.53.21c-.13,0-.2-.06-.2-.18A.88.88,0,0,1,669.67,75.66Z"
     id="path84" />
  <metadata
     id="metadata84">
    <rdf:RDF>
      <cc:Work
         rdf:about="">
        <dc:title>新下沙tq logo</dc:title>
      </cc:Work>
    </rdf:RDF>
  </metadata>
</svg>
